<svg class="main-svg" xmlns="http://www.w3.org/2000/svg" xmlns:xlink="http://www.w3.org/1999/xlink" width="1000" height="350" style="" viewBox="0 0 1000 350"><rect x="0" y="0" width="1000" height="350" style="fill: rgb(255, 255, 255); fill-opacity: 1;"/><defs id="defs-5cd6a5"><g class="clips"><clipPath id="clip5cd6a5xyplot" class="plotclip"><rect width="803" height="170"/></clipPath><clipPath class="axesclip" id="clip5cd6a5x"><rect x="80" y="0" width="803" height="350"/></clipPath><clipPath class="axesclip" id="clip5cd6a5y"><rect x="0" y="100" width="1000" height="170"/></clipPath><clipPath class="axesclip" id="clip5cd6a5xy"><rect x="80" y="100" width="803" height="170"/></clipPath></g><g class="gradients"/><g class="patterns"/></defs><g class="bglayer"><rect class="bg" x="80" y="100" width="803" height="170" style="fill: rgb(229, 236, 246); fill-opacity: 1; stroke-width: 0;"/></g><g class="layer-below"><g class="imagelayer"/><g class="shapelayer"/></g><g class="cartesianlayer"><g class="subplot xy"><g class="layer-subplot"><g class="shapelayer"/><g class="imagelayer"/></g><g class="minor-gridlayer"><g class="x"/><g class="y"/></g><g class="gridlayer"><g class="x"><path class="xgrid crisp" transform="translate(110.88,0)" d="M0,100v170" style="stroke: rgb(255, 255, 255); stroke-opacity: 1; stroke-width: 1px;"/><path class="xgrid crisp" transform="translate(234.42,0)" d="M0,100v170" style="stroke: rgb(255, 255, 255); stroke-opacity: 1; stroke-width: 1px;"/><path class="xgrid crisp" transform="translate(357.96,0)" d="M0,100v170" style="stroke: rgb(255, 255, 255); stroke-opacity: 1; stroke-width: 1px;"/><path class="xgrid crisp" transform="translate(481.5,0)" d="M0,100v170" style="stroke: rgb(255, 255, 255); stroke-opacity: 1; stroke-width: 1px;"/><path class="xgrid crisp" transform="translate(605.04,0)" d="M0,100v170" style="stroke: rgb(255, 255, 255); stroke-opacity: 1; stroke-width: 1px;"/><path class="xgrid crisp" transform="translate(728.58,0)" d="M0,100v170" style="stroke: rgb(255, 255, 255); stroke-opacity: 1; stroke-width: 1px;"/><path class="xgrid crisp" transform="translate(852.12,0)" d="M0,100v170" style="stroke: rgb(255, 255, 255); stroke-opacity: 1; stroke-width: 1px;"/></g><g class="y"><path class="ygrid crisp" transform="translate(0,212.99)" d="M80,0h803" style="stroke: rgb(255, 255, 255); stroke-opacity: 1; stroke-width: 1px;"/><path class="ygrid crisp" transform="translate(0,167.32)" d="M80,0h803" style="stroke: rgb(255, 255, 255); stroke-opacity: 1; stroke-width: 1px;"/><path class="ygrid crisp" transform="translate(0,121.64)" d="M80,0h803" style="stroke: rgb(255, 255, 255); stroke-opacity: 1; stroke-width: 1px;"/></g></g><g class="zerolinelayer"><path class="yzl zl crisp" transform="translate(0,258.65999999999997)" d="M80,0h803" style="stroke: rgb(255, 255, 255); stroke-opacity: 1; stroke-width: 2px;"/></g><g class="layer-between"><g class="shapelayer"/><g class="imagelayer"/></g><path class="xlines-below"/><path class="ylines-below"/><g class="overlines-below"/><g class="xaxislayer-below"/><g class="yaxislayer-below"/><g class="overaxes-below"/><g class="overplot"><g class="xy" transform="translate(80,100)" clip-path="url(#clip5cd6a5xyplot)"><g class="scatterlayer mlayer"><g class="trace scatter trace6be2fc" style="stroke-miterlimit: 2; opacity: 1;"><g class="fills"/><g class="errorbars"/><g class="lines"><path class="js-line" d="M6.18,148.62L30.88,134.91L55.59,39L80.3,127.61L105.01,116.64L154.42,60.01L179.13,64.58L203.84,115.73L228.55,86.5L253.25,112.99L327.38,78.28L352.08,83.76L376.79,99.29L401.5,105.68L426.21,90.15L450.92,90.15L475.62,114.82L500.33,98.38L549.75,52.7L574.45,105.68L599.16,106.6L623.87,104.77L648.58,96.55L673.28,111.16L697.99,93.81L722.7,119.38L747.41,109.34L772.12,118.47L796.82,119.38" style="vector-effect: none; fill: none; stroke: rgb(173, 216, 230); stroke-opacity: 1; stroke-width: 2px; opacity: 1;"/></g><g class="points"><path class="point" transform="translate(6.18,148.62)" d="M3,0A3,3 0 1,1 0,-3A3,3 0 0,1 3,0Z" style="opacity: 1; stroke-width: 0px; fill: rgb(173, 216, 230); fill-opacity: 1;"/><path class="point" transform="translate(30.88,134.91)" d="M3,0A3,3 0 1,1 0,-3A3,3 0 0,1 3,0Z" style="opacity: 1; stroke-width: 0px; fill: rgb(173, 216, 230); fill-opacity: 1;"/><path class="point" transform="translate(55.59,39)" d="M3,0A3,3 0 1,1 0,-3A3,3 0 0,1 3,0Z" style="opacity: 1; stroke-width: 0px; fill: rgb(173, 216, 230); fill-opacity: 1;"/><path class="point" transform="translate(80.3,127.61)" d="M3,0A3,3 0 1,1 0,-3A3,3 0 0,1 3,0Z" style="opacity: 1; stroke-width: 0px; fill: rgb(173, 216, 230); fill-opacity: 1;"/><path class="point" transform="translate(105.01,116.64)" d="M3,0A3,3 0 1,1 0,-3A3,3 0 0,1 3,0Z" style="opacity: 1; stroke-width: 0px; fill: rgb(173, 216, 230); fill-opacity: 1;"/><path class="point" transform="translate(154.42,60.01)" d="M3,0A3,3 0 1,1 0,-3A3,3 0 0,1 3,0Z" style="opacity: 1; stroke-width: 0px; fill: rgb(173, 216, 230); fill-opacity: 1;"/><path class="point" transform="translate(179.13,64.58)" d="M3,0A3,3 0 1,1 0,-3A3,3 0 0,1 3,0Z" style="opacity: 1; stroke-width: 0px; fill: rgb(173, 216, 230); fill-opacity: 1;"/><path class="point" transform="translate(203.84,115.73)" d="M3,0A3,3 0 1,1 0,-3A3,3 0 0,1 3,0Z" style="opacity: 1; stroke-width: 0px; fill: rgb(173, 216, 230); fill-opacity: 1;"/><path class="point" transform="translate(228.55,86.5)" d="M3,0A3,3 0 1,1 0,-3A3,3 0 0,1 3,0Z" style="opacity: 1; stroke-width: 0px; fill: rgb(173, 216, 230); fill-opacity: 1;"/><path class="point" transform="translate(253.25,112.99)" d="M3,0A3,3 0 1,1 0,-3A3,3 0 0,1 3,0Z" style="opacity: 1; stroke-width: 0px; fill: rgb(173, 216, 230); fill-opacity: 1;"/><path class="point" transform="translate(327.38,78.28)" d="M3,0A3,3 0 1,1 0,-3A3,3 0 0,1 3,0Z" style="opacity: 1; stroke-width: 0px; fill: rgb(173, 216, 230); fill-opacity: 1;"/><path class="point" transform="translate(352.08,83.76)" d="M3,0A3,3 0 1,1 0,-3A3,3 0 0,1 3,0Z" style="opacity: 1; stroke-width: 0px; fill: rgb(173, 216, 230); fill-opacity: 1;"/><path class="point" transform="translate(376.79,99.29)" d="M3,0A3,3 0 1,1 0,-3A3,3 0 0,1 3,0Z" style="opacity: 1; stroke-width: 0px; fill: rgb(173, 216, 230); fill-opacity: 1;"/><path class="point" transform="translate(401.5,105.68)" d="M3,0A3,3 0 1,1 0,-3A3,3 0 0,1 3,0Z" style="opacity: 1; stroke-width: 0px; fill: rgb(173, 216, 230); fill-opacity: 1;"/><path class="point" transform="translate(426.21,90.15)" d="M3,0A3,3 0 1,1 0,-3A3,3 0 0,1 3,0Z" style="opacity: 1; stroke-width: 0px; fill: rgb(173, 216, 230); fill-opacity: 1;"/><path class="point" transform="translate(450.92,90.15)" d="M3,0A3,3 0 1,1 0,-3A3,3 0 0,1 3,0Z" style="opacity: 1; stroke-width: 0px; fill: rgb(173, 216, 230); fill-opacity: 1;"/><path class="point" transform="translate(475.62,114.82)" d="M3,0A3,3 0 1,1 0,-3A3,3 0 0,1 3,0Z" style="opacity: 1; stroke-width: 0px; fill: rgb(173, 216, 230); fill-opacity: 1;"/><path class="point" transform="translate(500.33,98.38)" d="M3,0A3,3 0 1,1 0,-3A3,3 0 0,1 3,0Z" style="opacity: 1; stroke-width: 0px; fill: rgb(173, 216, 230); fill-opacity: 1;"/><path class="point" transform="translate(549.75,52.7)" d="M3,0A3,3 0 1,1 0,-3A3,3 0 0,1 3,0Z" style="opacity: 1; stroke-width: 0px; fill: rgb(173, 216, 230); fill-opacity: 1;"/><path class="point" transform="translate(574.45,105.68)" d="M3,0A3,3 0 1,1 0,-3A3,3 0 0,1 3,0Z" style="opacity: 1; stroke-width: 0px; fill: rgb(173, 216, 230); fill-opacity: 1;"/><path class="point" transform="translate(599.16,106.6)" d="M3,0A3,3 0 1,1 0,-3A3,3 0 0,1 3,0Z" style="opacity: 1; stroke-width: 0px; fill: rgb(173, 216, 230); fill-opacity: 1;"/><path class="point" transform="translate(623.87,104.77)" d="M3,0A3,3 0 1,1 0,-3A3,3 0 0,1 3,0Z" style="opacity: 1; stroke-width: 0px; fill: rgb(173, 216, 230); fill-opacity: 1;"/><path class="point" transform="translate(648.58,96.55)" d="M3,0A3,3 0 1,1 0,-3A3,3 0 0,1 3,0Z" style="opacity: 1; stroke-width: 0px; fill: rgb(173, 216, 230); fill-opacity: 1;"/><path class="point" transform="translate(673.28,111.16)" d="M3,0A3,3 0 1,1 0,-3A3,3 0 0,1 3,0Z" style="opacity: 1; stroke-width: 0px; fill: rgb(173, 216, 230); fill-opacity: 1;"/><path class="point" transform="translate(697.99,93.81)" d="M3,0A3,3 0 1,1 0,-3A3,3 0 0,1 3,0Z" style="opacity: 1; stroke-width: 0px; fill: rgb(173, 216, 230); fill-opacity: 1;"/><path class="point" transform="translate(722.7,119.38)" d="M3,0A3,3 0 1,1 0,-3A3,3 0 0,1 3,0Z" style="opacity: 1; stroke-width: 0px; fill: rgb(173, 216, 230); fill-opacity: 1;"/><path class="point" transform="translate(747.41,109.34)" d="M3,0A3,3 0 1,1 0,-3A3,3 0 0,1 3,0Z" style="opacity: 1; stroke-width: 0px; fill: rgb(173, 216, 230); fill-opacity: 1;"/><path class="point" transform="translate(772.12,118.47)" d="M3,0A3,3 0 1,1 0,-3A3,3 0 0,1 3,0Z" style="opacity: 1; stroke-width: 0px; fill: rgb(173, 216, 230); fill-opacity: 1;"/><path class="point" transform="translate(796.82,119.38)" d="M3,0A3,3 0 1,1 0,-3A3,3 0 0,1 3,0Z" style="opacity: 1; stroke-width: 0px; fill: rgb(173, 216, 230); fill-opacity: 1;"/></g><g class="text"/></g><g class="trace scatter trace011ddc" style="stroke-miterlimit: 2; opacity: 1;"><g class="fills"/><g class="errorbars"/><g class="lines"><path class="js-line" d="M30.88,157.75L55.59,153.18L154.42,152.27L179.13,146.79L203.84,148.62L228.55,139.48L253.25,148.62L327.38,149.53L352.08,148.62L376.79,155.01L401.5,134.91L426.21,137.65L450.92,131.26L475.62,136.74L500.33,151.36L549.75,89.24L574.45,131.26L599.16,130.35L623.87,64.58L648.58,101.12L673.28,93.81L697.99,103.86L722.7,58.18L747.41,81.02L772.12,95.63L796.82,75.54" style="vector-effect: none; fill: none; stroke: rgb(255, 192, 203); stroke-opacity: 1; stroke-width: 2px; opacity: 1;"/></g><g class="points"><path class="point" transform="translate(30.88,157.75)" d="M3,0A3,3 0 1,1 0,-3A3,3 0 0,1 3,0Z" style="opacity: 1; stroke-width: 0px; fill: rgb(255, 192, 203); fill-opacity: 1;"/><path class="point" transform="translate(55.59,153.18)" d="M3,0A3,3 0 1,1 0,-3A3,3 0 0,1 3,0Z" style="opacity: 1; stroke-width: 0px; fill: rgb(255, 192, 203); fill-opacity: 1;"/><path class="point" transform="translate(154.42,152.27)" d="M3,0A3,3 0 1,1 0,-3A3,3 0 0,1 3,0Z" style="opacity: 1; stroke-width: 0px; fill: rgb(255, 192, 203); fill-opacity: 1;"/><path class="point" transform="translate(179.13,146.79)" d="M3,0A3,3 0 1,1 0,-3A3,3 0 0,1 3,0Z" style="opacity: 1; stroke-width: 0px; fill: rgb(255, 192, 203); fill-opacity: 1;"/><path class="point" transform="translate(203.84,148.62)" d="M3,0A3,3 0 1,1 0,-3A3,3 0 0,1 3,0Z" style="opacity: 1; stroke-width: 0px; fill: rgb(255, 192, 203); fill-opacity: 1;"/><path class="point" transform="translate(228.55,139.48)" d="M3,0A3,3 0 1,1 0,-3A3,3 0 0,1 3,0Z" style="opacity: 1; stroke-width: 0px; fill: rgb(255, 192, 203); fill-opacity: 1;"/><path class="point" transform="translate(253.25,148.62)" d="M3,0A3,3 0 1,1 0,-3A3,3 0 0,1 3,0Z" style="opacity: 1; stroke-width: 0px; fill: rgb(255, 192, 203); fill-opacity: 1;"/><path class="point" transform="translate(327.38,149.53)" d="M3,0A3,3 0 1,1 0,-3A3,3 0 0,1 3,0Z" style="opacity: 1; stroke-width: 0px; fill: rgb(255, 192, 203); fill-opacity: 1;"/><path class="point" transform="translate(352.08,148.62)" d="M3,0A3,3 0 1,1 0,-3A3,3 0 0,1 3,0Z" style="opacity: 1; stroke-width: 0px; fill: rgb(255, 192, 203); fill-opacity: 1;"/><path class="point" transform="translate(376.79,155.01)" d="M3,0A3,3 0 1,1 0,-3A3,3 0 0,1 3,0Z" style="opacity: 1; stroke-width: 0px; fill: rgb(255, 192, 203); fill-opacity: 1;"/><path class="point" transform="translate(401.5,134.91)" d="M3,0A3,3 0 1,1 0,-3A3,3 0 0,1 3,0Z" style="opacity: 1; stroke-width: 0px; fill: rgb(255, 192, 203); fill-opacity: 1;"/><path class="point" transform="translate(426.21,137.65)" d="M3,0A3,3 0 1,1 0,-3A3,3 0 0,1 3,0Z" style="opacity: 1; stroke-width: 0px; fill: rgb(255, 192, 203); fill-opacity: 1;"/><path class="point" transform="translate(450.92,131.26)" d="M3,0A3,3 0 1,1 0,-3A3,3 0 0,1 3,0Z" style="opacity: 1; stroke-width: 0px; fill: rgb(255, 192, 203); fill-opacity: 1;"/><path class="point" transform="translate(475.62,136.74)" d="M3,0A3,3 0 1,1 0,-3A3,3 0 0,1 3,0Z" style="opacity: 1; stroke-width: 0px; fill: rgb(255, 192, 203); fill-opacity: 1;"/><path class="point" transform="translate(500.33,151.36)" d="M3,0A3,3 0 1,1 0,-3A3,3 0 0,1 3,0Z" style="opacity: 1; stroke-width: 0px; fill: rgb(255, 192, 203); fill-opacity: 1;"/><path class="point" transform="translate(549.75,89.24)" d="M3,0A3,3 0 1,1 0,-3A3,3 0 0,1 3,0Z" style="opacity: 1; stroke-width: 0px; fill: rgb(255, 192, 203); fill-opacity: 1;"/><path class="point" transform="translate(574.45,131.26)" d="M3,0A3,3 0 1,1 0,-3A3,3 0 0,1 3,0Z" style="opacity: 1; stroke-width: 0px; fill: rgb(255, 192, 203); fill-opacity: 1;"/><path class="point" transform="translate(599.16,130.35)" d="M3,0A3,3 0 1,1 0,-3A3,3 0 0,1 3,0Z" style="opacity: 1; stroke-width: 0px; fill: rgb(255, 192, 203); fill-opacity: 1;"/><path class="point" transform="translate(623.87,64.58)" d="M3,0A3,3 0 1,1 0,-3A3,3 0 0,1 3,0Z" style="opacity: 1; stroke-width: 0px; fill: rgb(255, 192, 203); fill-opacity: 1;"/><path class="point" transform="translate(648.58,101.12)" d="M3,0A3,3 0 1,1 0,-3A3,3 0 0,1 3,0Z" style="opacity: 1; stroke-width: 0px; fill: rgb(255, 192, 203); fill-opacity: 1;"/><path class="point" transform="translate(673.28,93.81)" d="M3,0A3,3 0 1,1 0,-3A3,3 0 0,1 3,0Z" style="opacity: 1; stroke-width: 0px; fill: rgb(255, 192, 203); fill-opacity: 1;"/><path class="point" transform="translate(697.99,103.86)" d="M3,0A3,3 0 1,1 0,-3A3,3 0 0,1 3,0Z" style="opacity: 1; stroke-width: 0px; fill: rgb(255, 192, 203); fill-opacity: 1;"/><path class="point" transform="translate(722.7,58.18)" d="M3,0A3,3 0 1,1 0,-3A3,3 0 0,1 3,0Z" style="opacity: 1; stroke-width: 0px; fill: rgb(255, 192, 203); fill-opacity: 1;"/><path class="point" transform="translate(747.41,81.02)" d="M3,0A3,3 0 1,1 0,-3A3,3 0 0,1 3,0Z" style="opacity: 1; stroke-width: 0px; fill: rgb(255, 192, 203); fill-opacity: 1;"/><path class="point" transform="translate(772.12,95.63)" d="M3,0A3,3 0 1,1 0,-3A3,3 0 0,1 3,0Z" style="opacity: 1; stroke-width: 0px; fill: rgb(255, 192, 203); fill-opacity: 1;"/><path class="point" transform="translate(796.82,75.54)" d="M3,0A3,3 0 1,1 0,-3A3,3 0 0,1 3,0Z" style="opacity: 1; stroke-width: 0px; fill: rgb(255, 192, 203); fill-opacity: 1;"/></g><g class="text"/></g></g></g></g><path class="xlines-above crisp" d="M0,0" style="fill: none;"/><path class="ylines-above crisp" d="M0,0" style="fill: none;"/><g class="overlines-above"/><g class="xaxislayer-above"><g class="xtick"><text text-anchor="middle" x="0" y="283" transform="translate(110.88,0)" style="font-family: 'Open Sans', verdana, arial, sans-serif; font-size: 12px; fill: rgb(42, 63, 95); fill-opacity: 1; white-space: pre; opacity: 1;">1900</text></g><g class="xtick"><text text-anchor="middle" x="0" y="283" style="font-family: 'Open Sans', verdana, arial, sans-serif; font-size: 12px; fill: rgb(42, 63, 95); fill-opacity: 1; white-space: pre; opacity: 1;" transform="translate(234.42,0)">1920</text></g><g class="xtick"><text text-anchor="middle" x="0" y="283" style="font-family: 'Open Sans', verdana, arial, sans-serif; font-size: 12px; fill: rgb(42, 63, 95); fill-opacity: 1; white-space: pre; opacity: 1;" transform="translate(357.96,0)">1940</text></g><g class="xtick"><text text-anchor="middle" x="0" y="283" style="font-family: 'Open Sans', verdana, arial, sans-serif; font-size: 12px; fill: rgb(42, 63, 95); fill-opacity: 1; white-space: pre; opacity: 1;" transform="translate(481.5,0)">1960</text></g><g class="xtick"><text text-anchor="middle" x="0" y="283" style="font-family: 'Open Sans', verdana, arial, sans-serif; font-size: 12px; fill: rgb(42, 63, 95); fill-opacity: 1; white-space: pre; opacity: 1;" transform="translate(605.04,0)">1980</text></g><g class="xtick"><text text-anchor="middle" x="0" y="283" style="font-family: 'Open Sans', verdana, arial, sans-serif; font-size: 12px; fill: rgb(42, 63, 95); fill-opacity: 1; white-space: pre; opacity: 1;" transform="translate(728.58,0)">2000</text></g><g class="xtick"><text text-anchor="middle" x="0" y="283" style="font-family: 'Open Sans', verdana, arial, sans-serif; font-size: 12px; fill: rgb(42, 63, 95); fill-opacity: 1; white-space: pre; opacity: 1;" transform="translate(852.12,0)">2020</text></g></g><g class="yaxislayer-above"><g class="ytick"><text text-anchor="end" x="79" y="4.199999999999999" transform="translate(0,258.65999999999997)" style="font-family: 'Open Sans', verdana, arial, sans-serif; font-size: 12px; fill: rgb(42, 63, 95); fill-opacity: 1; white-space: pre; opacity: 1;">0</text></g><g class="ytick"><text text-anchor="end" x="79" y="4.199999999999999" style="font-family: 'Open Sans', verdana, arial, sans-serif; font-size: 12px; fill: rgb(42, 63, 95); fill-opacity: 1; white-space: pre; opacity: 1;" transform="translate(0,212.99)">50</text></g><g class="ytick"><text text-anchor="end" x="79" y="4.199999999999999" style="font-family: 'Open Sans', verdana, arial, sans-serif; font-size: 12px; fill: rgb(42, 63, 95); fill-opacity: 1; white-space: pre; opacity: 1;" transform="translate(0,167.32)">100</text></g><g class="ytick"><text text-anchor="end" x="79" y="4.199999999999999" style="font-family: 'Open Sans', verdana, arial, sans-serif; font-size: 12px; fill: rgb(42, 63, 95); fill-opacity: 1; white-space: pre; opacity: 1;" transform="translate(0,121.64)">150</text></g></g><g class="overaxes-above"/></g></g><g class="polarlayer"/><g class="smithlayer"/><g class="ternarylayer"/><g class="geolayer"/><g class="funnelarealayer"/><g class="pielayer"/><g class="iciclelayer"/><g class="treemaplayer"/><g class="sunburstlayer"/><g class="glimages"/><defs id="topdefs-5cd6a5"><g class="clips"/><clipPath id="legend5cd6a5"><rect width="89" height="67" x="0" y="0"/></clipPath></defs><g class="layer-above"><g class="imagelayer"/><g class="shapelayer"/></g><g class="infolayer"><g class="legend" pointer-events="all" transform="translate(899.0600000000001,100)"><rect class="bg" shape-rendering="crispEdges" width="89" height="67" x="0" y="0" style="stroke: rgb(68, 68, 68); stroke-opacity: 1; fill: rgb(255, 255, 255); fill-opacity: 1; stroke-width: 0px;"/><g class="scrollbox" transform="" clip-path="url(#legend5cd6a5)"><text class="legendtitletext" text-anchor="start" x="2" y="18.2" style="font-family: 'Open Sans', verdana, arial, sans-serif; font-size: 14px; fill: rgb(42, 63, 95); fill-opacity: 1; white-space: pre;">Gender</text><g class="groups" transform=""><g class="traces" transform="translate(0,32.7)" style="opacity: 1;"><text class="legendtext" text-anchor="start" x="40" y="4.680000000000001" style="font-family: 'Open Sans', verdana, arial, sans-serif; font-size: 12px; fill: rgb(42, 63, 95); fill-opacity: 1; white-space: pre;">Male</text><g class="layers" style="opacity: 1;"><g class="legendfill"/><g class="legendlines"><path class="js-line" d="M5,0h30" style="fill: none; stroke: rgb(173, 216, 230); stroke-opacity: 1; stroke-width: 2px;"/></g><g class="legendsymbols"><g class="legendpoints"><path class="scatterpts" transform="translate(20,0)" d="M3,0A3,3 0 1,1 0,-3A3,3 0 0,1 3,0Z" style="opacity: 1; stroke-width: 0px; fill: rgb(173, 216, 230); fill-opacity: 1;"/></g></g></g><rect class="legendtoggle" x="0" y="-9.5" width="83.125" height="19" style="fill: rgb(0, 0, 0); fill-opacity: 0;"/></g></g><g class="groups" transform=""><g class="traces" transform="translate(0,51.7)" style="opacity: 1;"><text class="legendtext" text-anchor="start" x="40" y="4.680000000000001" style="font-family: 'Open Sans', verdana, arial, sans-serif; font-size: 12px; fill: rgb(42, 63, 95); fill-opacity: 1; white-space: pre;">Female</text><g class="layers" style="opacity: 1;"><g class="legendfill"/><g class="legendlines"><path class="js-line" d="M5,0h30" style="fill: none; stroke: rgb(255, 192, 203); stroke-opacity: 1; stroke-width: 2px;"/></g><g class="legendsymbols"><g class="legendpoints"><path class="scatterpts" transform="translate(20,0)" d="M3,0A3,3 0 1,1 0,-3A3,3 0 0,1 3,0Z" style="opacity: 1; stroke-width: 0px; fill: rgb(255, 192, 203); fill-opacity: 1;"/></g></g></g><rect class="legendtoggle" x="0" y="-9.5" width="83.125" height="19" style="fill: rgb(0, 0, 0); fill-opacity: 0;"/></g></g></g><rect class="scrollbar" rx="20" ry="3" width="0" height="0" x="0" y="0" style="fill: rgb(128, 139, 164); fill-opacity: 1;"/></g><g class="g-gtitle"><text class="gtitle" x="50" y="50" text-anchor="start" dy="0em" style="opacity: 1; font-family: 'Open Sans', verdana, arial, sans-serif; font-size: 17px; fill: rgb(42, 63, 95); fill-opacity: 1; white-space: pre;">Total Olympic Gold Medals won by Gender for the United States</text></g><g class="g-xtitle"><text class="xtitle" x="481.5" y="309.70625" text-anchor="middle" style="opacity: 1; font-family: 'Open Sans', verdana, arial, sans-serif; font-size: 14px; fill: rgb(42, 63, 95); fill-opacity: 1; white-space: pre;">Year</text></g><g class="g-ytitle"><text class="ytitle" transform="rotate(-90,36.709375,185)" x="36.709375" y="185" text-anchor="middle" style="opacity: 1; font-family: 'Open Sans', verdana, arial, sans-serif; font-size: 14px; fill: rgb(42, 63, 95); fill-opacity: 1; white-space: pre;">Total Medals</text></g><g class="annotation" data-index="0" style="opacity: 1;"><g class="annotation-text-g" transform="rotate(0,492.09000000000003,109.00000000000003)"><g class="cursor-pointer" transform="translate(126,100)"><rect class="bg" x="0.5" y="0.5" width="732" height="17" style="stroke-width: 1px; stroke: rgb(0, 0, 0); stroke-opacity: 0; fill: rgb(0, 0, 0); fill-opacity: 0;"/><text class="annotation-text" text-anchor="middle" x="366.875" y="14" style="font-family: 'Open Sans', verdana, arial, sans-serif; font-size: 12px; fill: rgb(42, 63, 95); fill-opacity: 1; white-space: pre;">The US had 523 athletes out of a total of 620 as the Olympics was held in St. Louis with little international participation.</text></g></g><g class="annotation-arrow-g" style="opacity: 1;"><path d="M128.42333333333335,117.50000000000003L135.59,139" style="stroke-width: 2px; stroke: rgb(255, 0, 0); stroke-opacity: 1; stroke-dasharray: 0px, 0px, 20.063px, 22.663px;"/><path d="M-3.7,-2.5V2.5L1.3,0Z" transform="translate(134.76780700683594,136.53341674804688)rotate(71.56781601708516)scale(2)" style="fill: rgb(255, 0, 0); stroke-width: 0;"/></g></g><g class="annotation" data-index="1" style="opacity: 1;"><g class="annotation-text-g" transform="rotate(0,464.87,134.57999999999998)"><g class="cursor-pointer" transform="translate(236,126)"><rect class="bg" x="0.5" y="0.5" width="457" height="17" style="stroke-width: 1px; stroke: rgb(0, 0, 0); stroke-opacity: 0; fill: rgb(0, 0, 0); fill-opacity: 0;"/><text class="annotation-text" text-anchor="middle" x="229.078125" y="14" style="font-family: 'Open Sans', verdana, arial, sans-serif; font-size: 12px; fill: rgb(42, 63, 95); fill-opacity: 1; white-space: pre;">1996 was the first time US women surpassed the men in gold medals won.</text></g></g><g class="annotation-arrow-g" style="opacity: 1;"><path d="M693.87,134.57999999999998L703.87,164.57999999999998" style="stroke-width: 2px; stroke: rgb(255, 0, 0); stroke-opacity: 1; stroke-dasharray: 0px, 0px, 29.0228px, 31.6228px;"/><path d="M-3.7,-2.5V2.5L1.3,0Z" transform="translate(703.0477905273438,162.11341857910156)rotate(71.56781601708516)scale(2)" style="fill: rgb(255, 0, 0); stroke-width: 0;"/></g></g></g></svg>